<?xml version="1.0" encoding="utf-8"?>
<!-- Generator: Adobe Illustrator 28.1.0, SVG Export Plug-In . SVG Version: 6.00 Build 0)  -->
<svg version="1.1" id="Layer_1" xmlns="http://www.w3.org/2000/svg" xmlns:xlink="http://www.w3.org/1999/xlink" x="0px" y="0px"
	 viewBox="0 0 502.9 150.9" style="enable-background:new 0 0 502.9 150.9;" xml:space="preserve">
<style type="text/css">
	.st0{fill:#FFFFFF;}
</style>
<path class="st0" d="M329.6,134.8c-9.7,0-15.1-9.5-15.1-21c0-13.5,7.3-27.2,14.2-31c2.9,4.4,9.5,8,22.4,9.7c0.4,2,0.7,4.4,0.7,7.1
	C351.8,117,343.2,134.8,329.6,134.8z M474.1,75.9c2.2,0,4.7,2,4.7,6.6c0,11.5-12,22.1-24.6,25.5C455.5,92.2,466.1,75.9,474.1,75.9z
	 M127.1,39.8c-0.5-0.2-1.3-0.4-1.8-1l-0.2-0.2l-0.2,0.2c-0.4,0.2-0.7,0.5-1.1,0.7c0.2,0.5,0.3,1.1,0.3,1.6c0,0.9-0.1,1.8,0.1,2.5
	c0,0.9,0.1,1.5,0.3,1.8c0.2,0.4,0.3,0.6,0.9,0.2c0.4,0,0.5-0.2,0.9-0.5s0.6-0.7,0.8-1.4c0.4-1.3,0.3-2.7-0.1-3.4
	C127,40.2,127,40,127.1,39.8z M150.8,34.7c-0.1-0.3-0.4-0.6-0.8-0.4c-1.7,0.4-4,0.9-5.9,1.1c0.1-2.9-0.4-5.9-1.8-8.8
	c-1.6-3.4-3.6-5.9-6.3-8.2l-0.5-5.5c-0.2-1.9-0.4-4.1-0.8-6c-0.3-2.3-1-5.1-2.1-5.9c-4.3-2.6-9,6.4-10.3,10.2l-0.2,0.6h-0.9
	c-1.3,0-3.2-0.1-4.5,0l-0.9,0.1l-0.4-1.3c-1.4-4.4-2.7-9.7-5.7-10.4c-4.5-1-7.9,11.8-9.6,17.4c-6.3,4.8-9,18.1-5.8,24.8
	c6.3,13.4,22.5,17.3,37,10.6c6.3-2.9,10.5-7.9,12.1-13.6c0.7,0.1,1.7,0.1,2.6,0.2c1.2-0.1,2.4-0.1,3.1-0.2c0.3,0,0.7-0.3,0.6-0.7
	c0-0.3-0.3-0.7-0.7-0.6c-0.8,0-1.9,0-3,0c-0.8,0-1.5,0-2.2-0.1c0.1-0.4,0.1-0.7,0.2-1.1c1.9-0.2,4.5-0.7,6.4-1.3
	C150.7,35.4,151,35.1,150.8,34.7z M100,39.7c0-0.3,0.2-0.7,0.6-0.7c1.9-0.2,4.5-0.7,6.5-1.2c0.3-0.1,0.7,0,0.9,0.5
	c0.1,0.3,0,0.7-0.5,0.9c-1.9,0.5-4.7,1-6.7,1.2C100.4,40.3,100,40.1,100,39.7z M108.3,41.5c-0.6,0.4-1.8,1-2.8,1.3
	c-1.2,0.4-2.2,0.8-2.9,0.9c-0.3,0.1-0.7,0-0.9-0.5c-0.1-0.3,0-0.7,0.5-0.9c0.7-0.3,1.8-0.7,2.8-1.1c1-0.4,2.1-0.8,2.7-1.2
	c0.4-0.1,0.9,0,1,0.3C108.7,40.9,108.5,41.3,108.3,41.5z M112.8,34.2c-1.8-0.1-3-1.6-3-3.2c0.1-1.8,1.4-3,3.2-3c1.8,0.1,3,1.6,3,3.2
	C116,32.8,114.6,34.2,112.8,34.2z M131.2,39.2c-0.8,0.7-1.8,1-2.8,1.2c0.5,1.1,0.4,2.7,0,4.2c-0.2,0.7-0.6,1.6-1.2,2.1
	c-0.6,0.7-1.3,1-2.8,1.3c-1.1,0-1.8-0.6-2.1-1.3c-0.5-0.7-0.5-1.6-0.6-2.4c0-0.9,0.1-1.8-0.1-2.5c0-0.5,0-0.9-0.1-1.3
	c-1.5,0.1-3.1-0.1-4.1-1.1c-0.3-0.4-0.3-0.9,0-1.3s0.9-0.3,1.3,0c1.2,1.1,4.1,0.7,5.1-0.9c0.2-0.7,1.1-0.7,1.5-0.1
	c1,1.7,3.2,2.1,4.7,0.7c0.4-0.3,0.9-0.3,1.3,0C131.6,38.4,131.6,38.9,131.2,39.2z M133.3,32.2c-1.8-0.1-3-1.6-3-3.2
	c0.1-1.8,1.6-3,3.2-3c1.8,0.1,3,1.6,3,3.2C136.4,31.1,134.9,32.3,133.3,32.2z M500,116.8c-1.8,0-3.8,3.5-7.3,6.9
	c-4.4,4.2-11.1,8.9-20.4,8.9c-10.4,0-15.9-6.6-17.7-15.7c26.6-3.3,43.9-17.9,43.9-33c0-10-8-18.6-21.9-18.6
	c-23.5,0-45.5,25-47.3,50.6C417.5,131,410.9,133,407.2,133c-4.9,0-7.5-5.3-7.5-15.1c0-8.2,1.3-16.8,3.3-25.2
	c19-2.4,35.4-8.4,35.4-22.6c0-6.2-3.1-9.1-5.3-9.1c-2.4,0-2.2,3.3-12.8,8.4c-2.7,1.3-6.9,3.1-11.7,4.9c4-11.3,9.1-21.3,13.1-28.4
	s9.1-12.8,9.1-15.5c0-7.3-6.9-11.3-12-11.3c-7.8,0-13.5,7.3-20.6,20.8c-6,11.3-11.3,26.1-15.5,40.5c-3.3,0.2-6.6,0.4-10,0.4
	c-2,0-3.8,0-5.5-0.2c-3.5-13.7-13.3-20.4-24.1-20.4c-9.7,0-15.1,5.3-16.2,12.2c-11.4,1.7-32.4,20.1-35.1,43.2
	c-11.4,14.8-16.4,15.3-19.1,15.3c-2,0-3.8-2-3.8-5.3c0-10.2,14.4-27.2,14.4-45c0-11.3-7.3-15.5-13.5-15.5c-19.7,0-41,35-51.6,59.4
	c2.7-21.5,11.3-32.3,11.3-39.2c0-6.4-5.3-12.4-12-12.4c-8.4,0-13.5,9.1-17.7,29.7c-0.7,3.4-1.3,6.6-1.8,9.7
	c-13.7,18.3-21,20.7-25,20.7c-4.9,0-7.5-5.3-7.5-15.1c0-8.9,1.6-18.2,3.8-27c27-0.9,35-10.6,35-21c0-6-3.1-8.9-5.5-8.9
	c-2,0-2.9,3.8-12.6,8.4c-3.3,1.6-7.1,2.7-11.3,3.8c4-10.9,8.6-20.4,12.6-27.2c4-7.1,9.1-12.8,9.1-15.5c0-7.3-6.9-11.3-12-11.3
	c-7.8,0-13.5,7.3-20.6,20.8c-5.3,10.2-10.2,23-14.2,35.9h-0.4c-6.4,0-8.9-2-10.4-2c-1.1,0-1.8,1.3-1.8,2.9c0,4.6,3.8,9.1,9.1,11.5
	c-1.3,4.9-2.4,9.7-3.3,14c-0.6,2.7-1,5.4-1.4,8c-14.4,20.2-20.9,21.5-25,21.5c-3.1,0-6-2.4-6-9.1c0-7.5,3.1-19,9.7-31.7
	c3.3-6.2,5.3-8.4,5.3-12.4c0-7.3-4.7-13.3-12.6-13.3c-8.2,0-14.6,11.5-20.2,25.3c-2.9,7.3-5.3,16-6.5,24
	c-6.3,8.1-12.8,14.1-20.1,14.1c-6.2,0-10.6-7.1-12-16.4c19.9-6.2,30.6-19.9,30.6-30.3c0-10.2-8.5-17.1-16.8-16.9
	c-2.6,0.4-3.2-0.1-10.5,7.5C48.8,81.7,56,85.1,56,85.1s4.7,2,4.7,4.2c0,5.8-7.3,12.8-17.9,18.2c-2.7,1.4-5.3,2.8-7.4,4.5
	c1.8-7.1,3.3-14.7,4.5-22.3c0,0,1.2-9.9,1.8-12.8c3.1-24.2,0.5-37.7,0.5-37.7c-2.4-14.8-11-24.2-23.9-22.4C7.4,18.3,3.4,32.9,9,36.2
	c4.2,2.5,8.2,4.2,9.6,13.9c1.2,8.8,1,18.2,0,27.3c-0.7,6-1.7,11.9-3,18.3c-2.4,11.3-5.7,21.4-8.7,28.7c-3,7.6-7.2,14-6.8,16.6
	c1,7.2,8.4,10.2,13.4,9.5c7.4-1,12-8.5,16.9-21.9c2,10.7,11.8,20.6,25.6,20.6c10.4,0,18.1-2.7,29.6-19.1
	c1.2,11.7,7.4,20.8,19.1,20.8c9.9,0,22.1-5.2,35.9-25.4c0.4,14.9,7.6,25.4,20.6,25.4c11.1,0,22.6-4.8,35.5-22.9
	c0.2,4.8,0.8,9.6,1.7,11.9c2.7,6.6,7.1,11.1,14.8,11.1c7.3,0,8.6-8.9,13.5-21.9c7.8-20.6,21.3-39.6,26.6-39.6c1.3,0,2.2,1.1,2.2,2.7
	c0,8-11.5,24.1-11.5,39.4c0,11.5,7.8,19.5,18.2,19.5c8.7,0,18.2-4.6,30.2-21.7c3,12.6,12.9,21.7,28.7,21.7c28.4,0,47.4-29,47.6-56.9
	h10.2c-0.7,2.9-1.3,5.5-1.8,8.2c-1.8,8.4-2.4,16.8-2.4,22.1c0,15.5,7.3,26.6,20.6,26.6c10.9,0,22.3-4.7,35.1-22.3
	c3.9,14.9,17.2,22.3,29.8,22.3c27.7,0,42.7-22.4,42.7-30.8C502.9,118.2,501.5,116.8,500,116.8z"/>
</svg>
